<?xml version="1.0" standalone="no"?>
<!DOCTYPE svg PUBLIC "-//W3C//DTD SVG 20010904//EN"
 "http://www.w3.org/TR/2001/REC-SVG-20010904/DTD/svg10.dtd">
<svg version="1.0" xmlns="http://www.w3.org/2000/svg"
 width="1024.000000pt" height="1024.000000pt" viewBox="0 0 1024.000000 1024.000000"
 preserveAspectRatio="xMidYMid meet">

<g transform="translate(0.000000,1024.000000) scale(0.100000,-0.100000)"
fill="#000000" stroke="none">
<path d="M4980 9914 c-19 -2 -84 -9 -145 -14 -284 -28 -583 -127 -757 -253
-62 -45 -164 -161 -195 -221 -30 -59 -33 -61 -136 -117 -142 -77 -211 -179
-224 -333 -6 -73 2 -113 33 -184 14 -29 13 -44 -6 -155 -43 -242 -44 -314 -5
-374 12 -17 13 -28 5 -42 -5 -11 -10 -35 -10 -55 0 -31 -4 -36 -37 -47 -93
-30 -152 -92 -213 -222 -45 -96 -67 -192 -78 -337 -37 -479 171 -817 498 -809
51 1 73 -3 100 -20 19 -11 42 -21 52 -21 14 0 15 4 3 43 -44 146 -75 548 -75
967 0 205 16 471 31 505 4 11 26 79 48 150 27 90 44 129 53 126 7 -2 73 -23
145 -47 164 -54 262 -72 473 -85 135 -8 189 -7 298 5 280 33 658 134 869 231
42 19 77 34 78 33 1 -2 7 -66 14 -143 6 -77 20 -174 32 -215 28 -103 105 -261
167 -343 31 -40 49 -73 45 -82 -3 -9 6 -32 19 -53 14 -20 29 -48 33 -62 l9
-25 7 25 c9 28 9 19 -12 -160 -15 -142 -6 -343 20 -445 41 -155 122 -290 203
-339 80 -48 133 -68 195 -74 l61 -7 -56 -85 c-32 -47 -110 -139 -174 -204
l-118 -120 0 -52 c0 -47 12 -78 22 -57 1 5 29 28 61 52 114 87 254 250 366
428 19 32 32 42 52 43 15 0 38 9 52 20 14 11 32 17 41 14 9 -3 38 -3 64 1 41
6 54 14 104 67 68 71 140 209 167 319 51 204 49 549 -5 721 -36 114 -79 192
-135 242 -41 37 -70 51 -144 71 -28 7 -45 85 -45 207 0 106 -48 357 -96 503
-109 330 -276 559 -534 730 -215 144 -466 233 -781 279 -106 15 -374 28 -439
20z m1105 -2091 l28 -38 -31 29 c-18 17 -32 33 -32 38 0 15 7 9 35 -29z"/>
<path d="M5708 8591 c-27 -15 -45 -31 -41 -35 4 -4 -5 -5 -20 -2 -15 2 -27 1
-27 -4 0 -4 -18 -11 -40 -15 -22 -4 -40 -11 -40 -16 0 -6 -4 -8 -9 -5 -4 3
-41 -5 -82 -19 -41 -13 -69 -24 -64 -25 56 -7 76 -7 64 1 -15 9 -6 13 24 9 10
-1 34 8 54 20 21 12 51 22 69 23 18 1 30 6 27 11 -4 5 6 7 21 4 14 -3 29 -1
32 3 3 5 10 9 15 9 6 0 7 -5 4 -11 -4 -6 -1 -10 6 -8 49 6 79 -22 79 -75 0
-10 3 -17 6 -13 11 10 -8 177 -20 176 -6 0 -32 -13 -58 -28z m32 -35 c0 -3 -4
-8 -10 -11 -5 -3 -10 -1 -10 4 0 6 5 11 10 11 6 0 10 -2 10 -4z"/>
<path d="M5323 8459 c-37 -11 -44 -25 -13 -25 11 0 20 4 20 9 0 4 5 5 10 2 6
-3 10 -2 10 4 0 6 7 7 17 4 11 -4 14 -3 9 5 -8 14 -9 14 -53 1z"/>
<path d="M5170 8419 c-46 -11 -57 -16 -30 -13 25 4 54 6 65 6 10 -1 24 3 30 7
5 5 19 11 30 14 l20 5 -20 0 c-11 0 -54 -8 -95 -19z"/>
<path d="M5005 8380 c-8 -13 5 -13 25 0 13 8 13 10 -2 10 -9 0 -20 -4 -23 -10z"/>
<path d="M4896 8362 c-3 -5 8 -6 25 -4 16 2 29 6 29 8 0 8 -49 4 -54 -4z"/>
<path d="M4698 8343 c7 -3 16 -2 19 1 4 3 -2 6 -13 5 -11 0 -14 -3 -6 -6z"/>
<path d="M4748 8343 c7 -3 16 -2 19 1 4 3 -2 6 -13 5 -11 0 -14 -3 -6 -6z"/>
<path d="M5120 8021 c-74 -23 -110 -48 -126 -88 -14 -33 -7 -74 16 -88 6 -4
46 10 87 31 65 33 85 39 137 38 38 0 84 -9 121 -23 90 -35 106 -37 122 -16 20
29 16 69 -11 94 -34 32 -165 71 -234 70 -31 0 -82 -8 -112 -18z"/>
<path d="M4083 7989 c-29 -11 -66 -33 -83 -49 -27 -25 -31 -35 -28 -72 4 -56
25 -60 109 -18 55 28 70 32 129 28 53 -3 76 -9 110 -32 54 -35 74 -27 78 33 3
35 -1 46 -26 69 -65 60 -192 78 -289 41z"/>
<path d="M6011 7883 c7 -12 15 -20 18 -17 3 2 -3 12 -13 22 -17 16 -18 16 -5
-5z"/>
<path d="M6091 7694 c0 -11 3 -14 6 -6 3 7 2 16 -1 19 -3 4 -6 -2 -5 -13z"/>
<path d="M5205 7672 c-92 -19 -140 -204 -83 -319 26 -50 76 -93 112 -93 37 0
86 39 106 83 64 139 -24 352 -135 329z"/>
<path d="M4181 7615 c-96 -110 -59 -375 54 -375 66 0 114 83 115 196 0 83 -20
147 -57 186 -37 39 -73 37 -112 -7z"/>
<path d="M6073 7490 c0 -25 2 -35 4 -22 2 12 2 32 0 45 -2 12 -4 2 -4 -23z"/>
<path d="M4625 7390 c-18 -7 -16 -8 10 -11 23 -3 31 -10 33 -28 3 -16 0 -21
-9 -16 -7 5 -10 4 -5 -3 12 -19 -70 -154 -140 -229 -29 -31 -48 -102 -39 -150
7 -43 29 -74 65 -92 24 -12 24 -12 -2 11 -37 31 -61 92 -52 132 9 45 26 73 84
145 47 59 99 147 114 197 4 14 1 28 -9 38 -18 18 -21 18 -50 6z"/>
<path d="M6072 7370 c0 -14 2 -19 5 -12 2 6 2 18 0 25 -3 6 -5 1 -5 -13z"/>
<path d="M6091 7154 c0 -11 3 -14 6 -6 3 7 2 16 -1 19 -3 4 -6 -2 -5 -13z"/>
<path d="M6114 7075 c6 -36 25 -89 31 -84 2 2 -5 29 -16 59 -11 30 -18 42 -15
25z"/>
<path d="M6156 6967 c3 -10 9 -15 12 -12 3 3 0 11 -7 18 -10 9 -11 8 -5 -6z"/>
<path d="M4410 6881 c0 -21 45 -62 93 -85 52 -25 151 -42 276 -48 51 -2 66 0
75 14 8 14 7 21 -5 34 -15 15 -16 14 -12 -10 5 -26 5 -26 -63 -26 -157 0 -277
33 -328 91 -20 21 -36 35 -36 30z"/>
<path d="M5030 6596 c-146 -67 -345 -85 -485 -45 -109 31 -119 30 -123 -10 -5
-49 14 -85 74 -140 121 -111 309 -122 497 -30 61 29 134 90 164 136 30 46 8
123 -36 123 -9 0 -50 -16 -91 -34z"/>
<path d="M5516 5924 c-11 -8 -16 -14 -10 -14 13 0 39 18 34 24 -3 2 -14 -2
-24 -10z"/>
<path d="M5448 5889 c-21 -11 -38 -22 -38 -24 0 -3 18 4 40 15 22 11 40 23 40
25 0 7 0 7 -42 -16z"/>
<path d="M6332 5842 c9 -42 6 -59 -17 -128 -63 -184 -151 -322 -289 -451 -258
-241 -705 -351 -1010 -248 -104 34 -142 55 -213 114 -69 58 -96 98 -117 174
-29 103 -29 308 -1 403 14 48 -32 40 -356 -56 -508 -152 -986 -372 -1235 -571
-70 -56 -197 -207 -283 -339 -130 -198 -308 -600 -418 -942 -32 -102 -71 -214
-282 -817 -34 -96 -61 -185 -61 -198 0 -24 14 -51 59 -111 l25 -34 17 34 c10
18 18 40 19 49 0 14 9 14 87 -2 132 -26 398 -101 599 -167 198 -66 348 -122
341 -128 -2 -2 -34 7 -72 21 -37 14 -70 23 -74 19 -3 -4 0 -9 7 -11 6 -3 10
-9 6 -14 -3 -5 0 -9 7 -9 7 0 20 -7 30 -16 9 -8 26 -17 36 -19 10 -1 17 -8 15
-15 -3 -13 37 -47 51 -42 4 1 7 -2 7 -7 0 -5 -17 -15 -37 -21 -21 -7 -42 -17
-48 -22 -5 -5 4 -4 20 2 17 7 82 15 145 18 105 5 113 6 92 20 -30 20 -28 34 3
20 14 -6 25 -17 25 -25 0 -10 21 -13 85 -13 94 0 123 -10 168 -57 33 -35 46
-76 53 -165 l5 -67 -28 4 c-15 2 -38 4 -51 4 -13 1 -21 4 -19 9 7 10 -450 9
-493 -2 -70 -17 -169 -78 -225 -137 -62 -68 -120 -178 -137 -263 l-13 -58 33
-27 c45 -39 184 -110 342 -176 74 -31 143 -64 154 -73 47 -42 61 -150 27 -212
-10 -19 -38 -49 -62 -66 -40 -28 -50 -31 -109 -29 -57 3 -61 2 -30 -7 19 -5
52 -7 75 -3 22 3 76 5 120 3 44 -2 116 -3 160 -2 79 0 81 1 155 51 41 28 84
60 94 72 45 50 45 53 41 -506 -1 -291 -6 -545 -10 -565 l-7 -38 2141 0 2141 0
0 43 c0 23 -5 117 -11 209 l-12 167 -41 5 c-23 3 -136 17 -253 31 -271 32
-471 61 -867 124 -176 28 -340 51 -364 51 -38 0 -60 -9 -139 -61 -199 -128
-313 -161 -627 -180 -185 -11 -349 -7 -440 13 -61 13 -160 53 -200 81 -32 23
-65 88 -66 129 0 23 -5 28 -37 33 -64 11 -75 16 -119 57 -51 47 -88 102 -81
121 3 7 6 5 6 -5 2 -43 48 -6 71 56 l15 41 130 2 c72 2 159 8 195 14 108 18
450 132 450 150 0 4 -46 -8 -102 -27 -57 -19 -161 -51 -233 -71 -122 -35 -139
-37 -272 -38 -128 0 -144 2 -170 21 -65 48 -81 141 -38 231 29 65 45 72 360
180 243 83 326 123 397 194 64 64 68 85 30 162 -42 85 -118 167 -189 204 -94
50 -150 62 -301 64 -170 2 -226 9 -231 29 -25 96 1 192 61 231 31 19 42 20
178 15 235 -9 358 -37 509 -118 119 -63 195 -114 296 -198 97 -82 250 -192
305 -221 101 -53 352 -50 900 11 636 70 701 78 709 85 7 7 -23 162 -60 310
-17 66 -31 142 -32 170 l-2 50 135 50 c116 44 383 126 407 125 4 -1 -10 -9
-32 -20 -31 -15 -35 -19 -17 -20 12 0 22 4 22 10 0 5 10 9 23 7 16 -1 21 3 19
15 -2 11 3 18 13 18 9 0 13 -4 10 -10 -11 -18 6 -33 18 -17 16 19 72 33 61 15
-5 -8 3 -6 18 4 17 12 28 14 30 6 3 -7 10 -4 21 6 9 10 17 15 17 12 0 -3 11
-1 24 4 16 6 27 5 35 -3 9 -9 14 -8 21 3 5 8 15 15 22 16 33 3 37 5 32 19 -4
10 0 15 12 15 13 0 15 -3 7 -8 -10 -6 -10 -12 3 -28 8 -10 13 -14 10 -8 -4 7
9 11 35 11 22 0 51 6 65 13 19 10 35 11 71 3 42 -10 46 -10 29 3 -20 14 -20
14 0 14 11 0 25 -5 30 -10 7 -7 14 -3 22 14 12 28 21 27 -138 7 -96 -13 -105
-13 -98 -6 11 11 420 54 514 55 38 0 65 -5 71 -12 6 -7 18 -48 27 -90 10 -43
21 -78 25 -78 8 0 58 52 89 94 12 16 22 43 22 60 0 36 -2 41 -108 406 -44 151
-117 406 -162 565 -155 548 -233 773 -346 995 -111 218 -216 354 -367 475
-193 155 -370 257 -637 368 -265 109 -502 182 -1000 307 -151 38 -315 80 -365
94 -49 14 -95 26 -101 26 -8 0 -8 -14 -2 -48z m-809 -1739 c75 -3 141 -9 147
-13 7 -4 14 -37 17 -72 l6 -65 86 -11 c47 -7 108 -13 135 -16 73 -6 80 -18 84
-145 3 -96 1 -116 -23 -187 -80 -235 -216 -374 -403 -413 -29 -6 -65 -11 -79
-11 -18 0 -42 -18 -89 -69 -35 -38 -86 -83 -114 -101 -37 -24 -50 -38 -50 -56
0 -14 -7 -41 -15 -61 -8 -19 -15 -44 -15 -56 0 -45 116 -117 188 -117 36 0 78
-35 96 -80 25 -62 21 -78 -17 -85 -19 -4 -193 -5 -388 -3 -402 4 -415 6 -406
63 12 73 62 114 168 135 36 7 69 22 93 42 37 31 38 32 32 82 -4 28 -8 62 -10
76 -2 16 -17 33 -43 50 -58 36 -153 121 -187 167 -27 36 -36 41 -94 51 -93 16
-167 57 -247 138 -123 123 -184 288 -171 466 3 49 13 102 21 118 l15 30 123
-3 122 -2 6 63 c3 35 10 67 15 72 5 5 25 10 44 13 60 7 810 7 953 0z m3087
-1504 c0 -5 -4 -7 -10 -4 -5 3 -55 -4 -110 -16 -56 -11 -103 -19 -106 -17 -5
5 167 45 204 47 12 0 22 -4 22 -10z m-243 -45 c-3 -3 -12 -4 -19 -1 -8 3 -5 6
6 6 11 1 17 -2 13 -5z m-5052 -174 c3 -6 -1 -7 -9 -4 -18 7 -21 14 -7 14 6 0
13 -4 16 -10z m1465 -1444 c0 -3 -4 -8 -10 -11 -5 -3 -10 -1 -10 4 0 6 5 11
10 11 6 0 10 -2 10 -4z"/>
<path d="M4440 3812 c-54 -26 -65 -59 -45 -135 33 -130 114 -254 195 -297 27
-14 29 -24 -25 155 -19 66 -41 159 -47 208 -13 96 -17 100 -78 69z"/>
<path d="M5676 3822 c-3 -3 -6 -17 -6 -32 0 -14 -18 -95 -41 -180 -45 -174
-69 -273 -66 -276 1 -1 21 7 45 18 92 44 169 150 205 284 22 77 19 109 -13
138 -26 24 -114 59 -124 48z"/>
<path d="M5310 5820 c-8 -5 -10 -10 -5 -10 6 0 17 5 25 10 8 5 11 10 5 10 -5
0 -17 -5 -25 -10z"/>
<path d="M5240 5790 c-35 -20 -35 -20 -5 -13 16 3 36 12 43 20 19 18 3 16 -38
-7z"/>
<path d="M8960 2651 c-37 -9 -34 -26 6 -39 19 -5 32 -7 29 -3 -2 4 15 17 38
29 l42 22 -45 -2 c-25 -1 -56 -4 -70 -7z"/>
<path d="M9088 2653 c6 -2 18 -2 25 0 6 3 1 5 -13 5 -14 0 -19 -2 -12 -5z"/>
<path d="M9078 2633 c6 -2 18 -2 25 0 6 3 1 5 -13 5 -14 0 -19 -2 -12 -5z"/>
<path d="M8950 2600 c0 -5 5 -10 11 -10 5 0 7 5 4 10 -3 6 -8 10 -11 10 -2 0
-4 -4 -4 -10z"/>
<path d="M8165 2495 c-40 -14 -40 -14 -5 -9 19 4 39 10 45 15 11 11 10 11 -40
-6z"/>
<path d="M3000 2482 c0 -13 38 -23 46 -11 3 5 1 9 -5 9 -5 0 -16 3 -25 6 -9 3
-16 2 -16 -4z"/>
<path d="M8080 2471 c0 -5 9 -7 20 -4 11 3 20 7 20 9 0 2 -9 4 -20 4 -11 0
-20 -4 -20 -9z"/>
<path d="M8015 2450 c-3 -6 1 -7 9 -4 18 7 21 14 7 14 -6 0 -13 -4 -16 -10z"/>
<path d="M7925 2420 c-22 -11 -32 -18 -22 -15 11 3 30 8 43 11 13 3 24 10 24
15 0 11 2 12 -45 -11z"/>
<path d="M3677 2061 c-17 -6 -16 -8 7 -19 23 -10 26 -9 26 8 0 21 -4 23 -33
11z"/>
<path d="M3554 974 c-18 -14 -18 -15 4 -4 18 9 22 8 22 -5 0 -8 5 -15 10 -15
7 0 7 6 0 20 -13 24 -11 24 -36 4z"/>
<path d="M2788 733 c6 -2 18 -2 25 0 6 3 1 5 -13 5 -14 0 -19 -2 -12 -5z"/>
<path d="M2830 726 c0 -2 11 -6 25 -8 13 -3 22 -1 19 3 -5 9 -44 13 -44 5z"/>
<path d="M3455 700 c-17 -7 -15 -9 13 -9 17 -1 32 4 32 9 0 12 -17 12 -45 0z"/>
<path d="M5626 689 c-98 -27 -250 -51 -299 -48 -92 5 -321 -3 -296 -11 34 -10
457 5 528 19 69 14 129 32 161 48 l25 13 -25 -1 c-14 -1 -56 -9 -94 -20z"/>
<path d="M3368 683 c7 -3 16 -2 19 1 4 3 -2 6 -13 5 -11 0 -14 -3 -6 -6z"/>
<path d="M3098 673 c6 -2 18 -2 25 0 6 3 1 5 -13 5 -14 0 -19 -2 -12 -5z"/>
<path d="M3218 663 c6 -2 18 -2 25 0 6 3 1 5 -13 5 -14 0 -19 -2 -12 -5z"/>
</g>
</svg>
